<?xml version="1.0" encoding="UTF-8" standalone="no"?>
<!-- Created with Inkscape (http://www.inkscape.org/) -->

<svg
   version="1.1"
   id="svg1"
   width="510"
   height="836"
   viewBox="0 0 510 836"
   sodipodi:docname="lantern-logo-black.svg"
   inkscape:version="1.4.2 (f4327f4, 2025-05-13)"
   xml:space="preserve"
   xmlns:inkscape="http://www.inkscape.org/namespaces/inkscape"
   xmlns:sodipodi="http://sodipodi.sourceforge.net/DTD/sodipodi-0.dtd"
   xmlns:xlink="http://www.w3.org/1999/xlink"
   xmlns="http://www.w3.org/2000/svg"
   xmlns:svg="http://www.w3.org/2000/svg"><defs
     id="defs1"><linearGradient
       id="linearGradient11"
       inkscape:collect="always"><stop
         style="stop-color:#2abfab;stop-opacity:1;"
         offset="0.50301808"
         id="stop11" /><stop
         style="stop-color:#2abfab;stop-opacity:0;"
         offset="0.88732392"
         id="stop12" /></linearGradient><linearGradient
       inkscape:collect="always"
       xlink:href="#linearGradient11"
       id="linearGradient12"
       x1="645.13275"
       y1="528.00049"
       x2="868.06915"
       y2="528.00049"
       gradientUnits="userSpaceOnUse"
       gradientTransform="translate(26.19161)" /><radialGradient
       inkscape:collect="always"
       xlink:href="#linearGradient33"
       id="radialGradient35"
       cx="771.9209"
       cy="580.25171"
       fx="771.9209"
       fy="580.25171"
       r="314.7392"
       gradientTransform="matrix(0.53265719,0,0,0.53345175,371.62321,376.58296)"
       gradientUnits="userSpaceOnUse" /><linearGradient
       id="linearGradient33"
       inkscape:collect="always"><stop
         style="stop-color:#2e1b8b;stop-opacity:1;"
         offset="0"
         id="stop34" /><stop
         style="stop-color:#2e1b8b;stop-opacity:0;"
         offset="1"
         id="stop35" /></linearGradient><radialGradient
       inkscape:collect="always"
       xlink:href="#linearGradient23-3"
       id="radialGradient24"
       cx="710.21637"
       cy="746.56708"
       fx="710.21637"
       fy="746.56708"
       r="221.13365"
       gradientUnits="userSpaceOnUse"
       gradientTransform="matrix(0.56164382,0,0,0.56164382,383.90378,266.81446)" /><linearGradient
       id="linearGradient23-3"
       inkscape:collect="always"><stop
         style="stop-color:#ffffff;stop-opacity:1;"
         offset="0.27240449"
         id="stop25-8" /><stop
         style="stop-color:#f6d12d;stop-opacity:0.627451;"
         offset="0.39408153"
         id="stop23-7" /><stop
         style="stop-color:#f6d12d;stop-opacity:0;"
         offset="1"
         id="stop24-4" /></linearGradient><filter
       inkscape:collect="always"
       style="color-interpolation-filters:sRGB"
       id="filter25"
       x="-0.04775788"
       y="-0.04775788"
       width="1.0955158"
       height="1.0955158"><feGaussianBlur
         inkscape:collect="always"
         stdDeviation="4.9428751"
         id="feGaussianBlur25" /></filter><filter
       inkscape:collect="always"
       style="color-interpolation-filters:sRGB"
       id="filter1"
       x="-0.073135294"
       y="-0.056439811"
       width="1.1462706"
       height="1.1128799"><feGaussianBlur
         inkscape:collect="always"
         stdDeviation="3.3430755"
         id="feGaussianBlur1" /></filter><filter
       inkscape:collect="always"
       style="color-interpolation-filters:sRGB"
       id="filter1-5"
       x="-0.25592852"
       y="-0.19750415"
       width="1.511857"
       height="1.3950097"><feGaussianBlur
         inkscape:collect="always"
         stdDeviation="9.915727"
         id="feGaussianBlur1-5" /></filter></defs><sodipodi:namedview
     id="namedview1"
     pagecolor="#14132f"
     bordercolor="#666666"
     borderopacity="1.0"
     inkscape:showpageshadow="2"
     inkscape:pageopacity="0.0"
     inkscape:pagecheckerboard="0"
     inkscape:deskcolor="#d1d1d1"
     showgrid="false"
     inkscape:zoom="0.907822"
     inkscape:cx="353.59355"
     inkscape:cy="600.33795"
     inkscape:window-width="1920"
     inkscape:window-height="1009"
     inkscape:window-x="-8"
     inkscape:window-y="-8"
     inkscape:window-maximized="1"
     inkscape:current-layer="g14" /><g
     id="g28"
     style="display:inline"
     transform="matrix(1.4739377,0,0,1.4716746,-617.76331,-398.94174)"
     inkscape:label="Lantern"><g
       id="g14"
       transform="translate(-190.66217,-32.964162)"><path
         id="path31"
         style="display:inline;opacity:0.795213;fill:url(#radialGradient35);fill-opacity:1;stroke:none;stroke-width:10.0508;stroke-linecap:round;stroke-linejoin:round;paint-order:fill markers stroke"
         d="m 945.41509,686.11926 c 0,43.19654 -17.13339,84.62387 -47.63105,115.16844 -30.49769,30.54456 -71.86139,47.70434 -114.99161,47.70434 -43.13022,0 -84.49394,-17.15975 -114.99162,-47.70433 -30.49767,-30.54457 -47.63109,-71.9719 -47.63109,-115.16845 0,-43.19654 17.13342,-84.62388 47.63109,-115.16845 30.49768,-30.54457 71.8614,-47.70433 114.99162,-47.70433 43.13022,10e-6 84.49392,17.15978 114.99161,47.70435 30.49766,30.54457 47.63105,71.97189 47.63105,115.16843 z"
         sodipodi:nodetypes="sssssssss" /><ellipse
         style="display:inline;opacity:0.795213;fill:#f6d12d;fill-opacity:1;stroke-width:16.9744;stroke-linecap:round;stroke-linejoin:round;paint-order:fill markers stroke"
         id="path6"
         cx="782.79242"
         cy="686.11926"
         rx="43.719589"
         ry="43.786819" /><path
         id="path8"
         style="display:inline;opacity:0.795213;fill:url(#radialGradient24);stroke-width:58.4199;stroke-linecap:round;stroke-linejoin:round;paint-order:fill markers stroke;filter:url(#filter25)"
         d="M 906.99076,686.11925 A 124.19835,124.19835 0 0 1 782.79241,810.3176 124.19835,124.19835 0 0 1 658.59406,686.11925 124.19835,124.19835 0 0 1 782.79241,561.9209 124.19835,124.19835 0 0 1 906.99076,686.11925 Z"
         transform="matrix(0.727152,0,0,0.727152,213.58333,187.20626)" /><path
         style="display:inline;opacity:0.795213;fill:none;stroke:#f6d12d;stroke-width:15.277;stroke-linecap:round;stroke-linejoin:round;stroke-dasharray:none;stroke-opacity:1;paint-order:fill markers stroke"
         d="m 855.28486,684.62256 c 0,40.09796 -32.45591,72.60378 -72.4923,72.60378 -40.03639,0 -72.49231,-32.50582 -72.49231,-72.60378 0,-40.09796 51.51317,-101.795 72.11864,-115.26786 19.48445,13.09862 72.86597,75.1699 72.86597,115.26786 z"
         id="path7" /><path
         style="display:inline;opacity:0.795213;mix-blend-mode:normal;fill:none;stroke:#f6d12d;stroke-width:26.6159;stroke-linecap:round;stroke-linejoin:round;stroke-dasharray:none;stroke-opacity:1;paint-order:fill markers stroke;filter:url(#filter1-5)"
         d="m 855.28485,684.6225 c 0,40.09796 -32.4559,72.60378 -72.4923,72.60378 -40.0364,0 -72.4923,-32.50582 -72.4923,-72.60378 0,-40.09796 51.5132,-101.795 72.1187,-115.26786 19.4844,13.09862 72.8659,75.1699 72.8659,115.26786 z"
         id="path7-8-1" /><path
         style="display:inline;opacity:0.795213;fill:none;stroke:#ffffff;stroke-width:5.16022;stroke-linecap:round;stroke-linejoin:round;stroke-dasharray:none;stroke-opacity:1;paint-order:fill markers stroke;filter:url(#filter1)"
         d="m 855.28485,684.62261 c 0,40.09796 -32.4559,72.60378 -72.4923,72.60378 -40.0364,0 -72.4923,-32.50582 -72.4923,-72.60378 0,-40.09796 51.5132,-101.795 72.1187,-115.26786 19.4844,13.09862 72.8659,75.1699 72.8659,115.26786 z"
         id="path7-8" /><path
         style="display:inline;fill:none;stroke:#2abfab;stroke-width:15.277;stroke-linecap:round;stroke-linejoin:miter;stroke-dasharray:none;stroke-opacity:1"
         d="m 688.52918,528.07772 -36.9935,195.35657 c 0,0 -2.6157,21.33204 10.83648,36.30189 13.45218,14.96985 40.82833,36.30189 120.4204,36.30189 79.59207,0 106.96822,-21.33204 120.4204,-36.30189 13.45218,-14.96985 10.83648,-36.30189 10.83648,-36.30189 l -36.9935,-195.35657"
         id="path9-5" /><path
         style="opacity:1;fill:none;stroke:#2abfab;stroke-width:15.277;stroke-linecap:round;stroke-linejoin:round;stroke-opacity:1;paint-order:fill markers stroke"
         d="m 749.50978,378.9028 c 0,-18.40921 14.9007,-33.33282 33.28164,-33.33282 18.38094,0 33.49739,14.92488 33.28164,33.33282 -0.37367,31.88208 -35.45264,22.32466 -32.5343,65.73723"
         id="path9"
         sodipodi:nodetypes="cssc" /><path
         style="display:inline;opacity:1;fill:none;stroke:#2abfab;stroke-width:15.277;stroke-linecap:butt;stroke-linejoin:round;stroke-dasharray:none;stroke-opacity:1;paint-order:fill markers stroke"
         d="m 840.25251,497.87322 c -2.49186,-29.92875 -27.47277,-52.94882 -57.45929,-52.94909 -29.98702,-4.2e-4 -54.9687,23.01983 -57.46061,52.94909"
         id="path9-52"
         sodipodi:nodetypes="ccc" /><path
         style="display:inline;opacity:1;fill:none;stroke:url(#linearGradient12);stroke-width:15.277;stroke-linecap:round;stroke-linejoin:round;stroke-dasharray:none;stroke-opacity:1;paint-order:fill markers stroke"
         d="m 653.8614,527.8136 232.76087,0.37373"
         id="path11"
         sodipodi:nodetypes="cc" /><path
         style="display:inline;opacity:1;fill:none;stroke:#2abfab;stroke-width:15.277;stroke-linecap:round;stroke-linejoin:round;stroke-dasharray:none;stroke-opacity:1;paint-order:fill markers stroke"
         d="m 911.89533,527.8136 c -2.69826,-19.2996 -19.18215,-33.658 -38.64011,-33.65772 H 692.32858 c -19.45745,3.8e-4 -35.9406,14.35862 -38.63879,33.65772"
         id="path9-52-2-6" /><path
         style="display:inline;opacity:1;fill:none;stroke:#2abfab;stroke-width:14.799;stroke-linecap:butt;stroke-linejoin:round;stroke-dasharray:none;stroke-opacity:1;paint-order:fill markers stroke"
         d="m 707.6696,788.28829 c 3.03606,24.0013 35.76402,42.52971 75.12296,42.52967 39.35894,4e-5 72.0869,-18.52837 75.12296,-42.52967"
         id="path10" /></g></g><g
     inkscape:groupmode="layer"
     id="layer1"
     inkscape:label="Lantern" /></svg>
